<svg width="375" height="56" viewBox="0 0 375 56" fill="none" xmlns="http://www.w3.org/2000/svg">
<rect width="375" height="56" fill="#5CA5A5"/>
<mask id="mask0_311_355" style="mask-type:alpha" maskUnits="userSpaceOnUse" x="-58" y="0" width="492" height="56">
<rect x="-58" width="491.67" height="56" fill="white"/>
</mask>
<g mask="url(#mask0_311_355)">
<path fill-rule="evenodd" clip-rule="evenodd" d="M111.381 202.261C129.894 220.722 159.906 220.722 178.419 202.261L242.553 138.307C226.776 156.884 227.673 184.739 245.244 202.261C263.757 220.722 293.769 220.722 312.282 202.261L455.053 59.8906C473.569 41.4262 473.569 11.4867 455.053 -6.97775C436.54 -25.4385 406.528 -25.4385 388.015 -6.97775L323.881 56.976C339.658 38.3992 338.761 10.5441 321.19 -6.97771C302.677 -25.4385 272.665 -25.4385 254.152 -6.97771L111.381 135.393C92.8649 153.857 92.8649 183.796 111.381 202.261Z" fill="#63BABA"/>
<path fill-rule="evenodd" clip-rule="evenodd" d="M-94.8607 42.1583C-76.348 60.6191 -46.3357 60.6191 -27.823 42.1583L114.948 -100.212C133.464 -118.676 133.464 -148.616 114.948 -167.08C96.4353 -185.541 66.423 -185.541 47.9102 -167.08L-94.8607 -24.71C-113.377 -6.24561 -113.377 23.6939 -94.8607 42.1583ZM65.199 16.3753C83.7118 34.836 113.724 34.836 132.237 16.3753L275.008 -125.995C293.524 -144.459 293.524 -174.399 275.008 -192.863C256.495 -211.324 226.483 -211.324 207.97 -192.863L65.1991 -50.4931C46.6826 -32.0287 46.6826 -2.08917 65.199 16.3753Z" fill="#63BABA"/>
</g>
</svg>
